<svg width="31" height="31" viewBox="0 0 31 31" fill="none" xmlns="http://www.w3.org/2000/svg">
<path d="M20.3898 9.74809L9.09597 14.7341C8.46205 15.0247 8.67517 15.9856 9.37267 15.9856H14.7735C14.8377 15.9856 14.8993 16.0111 14.9447 16.0566C14.9901 16.102 15.0156 16.1636 15.0156 16.2278V21.6274C15.0156 22.3249 15.9844 22.5356 16.2738 21.9035L21.252 10.6103C21.3077 10.4896 21.3251 10.3548 21.3017 10.2239C21.2784 10.093 21.2155 9.9725 21.1215 9.87852C21.0276 9.78453 20.907 9.72164 20.7762 9.69831C20.6453 9.67499 20.5104 9.69236 20.3898 9.74809Z" fill="#080808"/>
<path d="M27.125 15.5C27.125 9.08203 21.918 3.875 15.5 3.875C9.08203 3.875 3.875 9.08203 3.875 15.5C3.875 21.918 9.08203 27.125 15.5 27.125C21.918 27.125 27.125 21.918 27.125 15.5Z" stroke="#F1DD28" stroke-width="1.9375" stroke-miterlimit="10"/>
</svg>
